<svg width="32" height="32" viewBox="0 0 32 32" fill="none" xmlns="http://www.w3.org/2000/svg">
<g clip-path="url(#clip0)">
<path d="M15.4066 19.1744H21.7966C22.0121 19.1744 22.1868 18.9997 22.1868 18.7841C22.1868 18.5686 22.0121 18.3939 21.7966 18.3939H15.7968V10.386C15.7968 10.1704 15.6221 9.99573 15.4066 9.99573C15.1911 9.99573 15.0164 10.1704 15.0164 10.386V18.7841C15.0164 18.9997 15.1911 19.1744 15.4066 19.1744Z" fill="#525252"/>
<path d="M15.4067 32C22.9204 32 29.0333 25.8872 29.0333 18.3734C29.0354 14.8226 27.6468 11.4121 25.1649 8.87271L27.993 6.29392L29.5518 7.87571C29.7031 8.0292 29.9502 8.03102 30.1037 7.87974C30.2572 7.72845 30.2591 7.48137 30.1077 7.3278L27.004 4.17847C26.8527 4.02498 26.6057 4.02315 26.4521 4.17444C26.2986 4.32572 26.2968 4.57281 26.4481 4.72631L27.4447 5.73749L24.6039 8.32793C22.195 6.11382 19.0676 4.84416 15.7969 4.75278V0.780488H17.8258C18.0413 0.780488 18.216 0.605789 18.216 0.390244C18.216 0.174699 18.0413 0 17.8258 0H12.9876C12.7721 0 12.5974 0.174699 12.5974 0.390244C12.5974 0.605789 12.7721 0.780488 12.9876 0.780488H15.0164V4.75278C7.68253 4.96013 1.78009 10.9902 1.78009 18.3734C1.78009 25.8872 7.893 32 15.4067 32ZM15.3335 5.66667C22.4169 5.66667 27.993 11.2899 27.993 18.3734C27.993 25.4569 22.4901 31 15.4067 31C8.32331 31 2.66681 25.4569 2.66681 18.3734C2.66681 11.2899 8.25009 5.66667 15.3335 5.66667Z" fill="#525252"/>
</g>
<defs>
<clipPath id="clip0">
<rect width="32" height="32" fill="white"/>
</clipPath>
</defs>
</svg>
