<svg width="32" height="32" viewBox="0 0 32 32" fill="none" xmlns="http://www.w3.org/2000/svg">
<path d="M7.7037 21.3333H5.33333V0.592593C5.33333 0.264889 5.06785 0 4.74074 0C4.41363 0 4.14814 0.264889 4.14814 0.592593V21.3333H1.77777C1.45066 21.3333 1.18518 21.5982 1.18518 21.9259V29.037C1.18518 29.3647 1.45066 29.6296 1.77777 29.6296H4.14814V31.4074C4.14814 31.7351 4.41363 32 4.74074 32C5.06785 32 5.33333 31.7351 5.33333 31.4074V29.6296H7.7037C8.03081 29.6296 8.29629 29.3647 8.29629 29.037V21.9259C8.29629 21.5982 8.03081 21.3333 7.7037 21.3333ZM7.11111 28.4444H2.37037V22.5185H7.11111V28.4444Z" fill="#525252"/>
<path d="M18.963 11.8519H16.5927V0.592593C16.5927 0.264889 16.3272 0 16.0001 0C15.673 0 15.4075 0.264889 15.4075 0.592593V11.8519H13.0371C12.71 11.8519 12.4445 12.1167 12.4445 12.4444V19.5556C12.4445 19.8833 12.71 20.1481 13.0371 20.1481H15.4075V31.4074C15.4075 31.7351 15.673 32 16.0001 32C16.3272 32 16.5927 31.7351 16.5927 31.4074V20.1481H18.963C19.2901 20.1481 19.5556 19.8833 19.5556 19.5556V12.4444C19.5556 12.1167 19.2901 11.8519 18.963 11.8519ZM18.3704 18.963H13.6297V13.037H18.3704V18.963Z" fill="#525252"/>
<path d="M30.2222 2.37037H27.8518V0.592593C27.8518 0.264889 27.5863 0 27.2592 0C26.9321 0 26.6666 0.264889 26.6666 0.592593V2.37037H24.2963C23.9692 2.37037 23.7037 2.63526 23.7037 2.96296V10.0741C23.7037 10.4018 23.9692 10.6667 24.2963 10.6667H26.6666V31.4074C26.6666 31.7351 26.9321 32 27.2592 32C27.5863 32 27.8518 31.7351 27.8518 31.4074V10.6667H30.2222C30.5493 10.6667 30.8148 10.4018 30.8148 10.0741V2.96296C30.8148 2.63526 30.5493 2.37037 30.2222 2.37037ZM29.6296 9.48148H24.8889V3.55556H29.6296V9.48148Z" fill="#525252"/>
</svg>
