<?xml version="1.0" encoding="UTF-8"?>
<svg width="91px" height="14px" viewBox="0 0 91 14" version="1.1" xmlns="http://www.w3.org/2000/svg" xmlns:xlink="http://www.w3.org/1999/xlink">
    <!-- Generator: Sketch 58 (84663) - https://sketch.com -->
    <title>Group 19 Copy</title>
    <desc>Created with Sketch.</desc>
    <g id="Page-1" stroke="none" stroke-width="1" fill="none" fill-rule="evenodd">
        <g id="Artboard" transform="translate(-254.000000, -42.000000)" fill="#D1E1EC" fill-rule="nonzero">
            <g id="Group-19-Copy" transform="translate(254.000000, 42.000000)">
                <polygon id="Path" points="11.8232 14.0009 7.30099 11.7124 2.77874 13.9624 3.54522 8.94317 0.000244141 5.30855 5.00154 4.48163 7.35847 0.000854492 9.67708 4.50085 14.6592 5.36624 11.0951 8.98162"></polygon>
                <polygon id="Path" points="30.574 14.0009 26.0518 11.7124 21.5103 13.9624 22.2768 8.94317 18.751 5.30855 23.7331 4.48163 26.1092 0.000854492 28.4087 4.50085 33.3908 5.36624 29.8458 8.98162"></polygon>
                <polygon id="Path" points="49.7766 14.0009 45.2543 11.7124 40.7321 13.9624 41.4986 8.94317 37.9727 5.30855 42.9549 4.48163 45.3118 0.000854492 47.6305 4.50085 52.6126 5.36624 49.0485 8.98162"></polygon>
                <polygon id="Path" points="69.018 14.0009 64.4958 11.7124 59.9543 13.9624 60.7208 8.94317 57.195 5.30855 62.1963 4.48163 64.5533 0.000854492 66.8718 4.50085 71.854 5.36624 68.2898 8.98162"></polygon>
                <polygon id="Path" points="88.1643 14.0009 83.642 11.7124 79.1006 13.9624 79.8671 8.94317 76.3412 5.30855 81.3425 4.48163 83.6995 0.000854492 86.0181 4.50085 91.0002 5.36624 87.4361 8.98162"></polygon>
            </g>
        </g>
    </g>
</svg>