<svg width="32" height="32" viewBox="0 0 32 32" fill="none" xmlns="http://www.w3.org/2000/svg">
<g clip-path="url(#clip0)">
<path d="M20.8995 11.1146C20.7938 10.9541 20.6145 10.8576 20.4224 10.8576H12.9939V0.572051C12.9939 0.300794 12.8031 0.0667047 12.5374 0.0123958C12.2721 -0.0442179 12.004 0.0975325 11.8974 0.346892L3.32611 20.3468C3.25019 20.5231 3.26834 20.7257 3.37408 20.8864C3.47982 21.0466 3.65917 21.1431 3.85119 21.1431H11.2797V31.4287C11.2797 31.6999 11.4706 31.9337 11.7362 31.9883C11.7747 31.9961 11.8133 32 11.8514 32C12.076 32 12.285 31.8666 12.3762 31.6536L20.9475 11.6542C21.0234 11.4776 21.0053 11.2748 20.8995 11.1146ZM12.4225 28.6447V20.5717C12.4225 20.2559 12.1666 20.0002 11.851 20.0002H4.71783L11.8512 3.35606V11.4291C11.8512 11.7445 12.107 12.0005 12.4226 12.0005H19.5558L12.4225 28.6447Z" fill="#525252"/>
<path d="M28.6846 29.2307L24.6726 18.362C24.5898 18.1377 24.376 17.9888 24.1366 17.9888C23.8972 17.9888 23.6834 18.1377 23.6006 18.362L19.5886 29.2307C19.4793 29.527 19.6307 29.8558 19.9267 29.9651C20.2228 30.0734 20.5515 29.9233 20.6606 29.627L21.8937 26.2861H26.3791L27.6122 29.627C27.6974 29.8575 27.9158 30.0002 28.1483 30.0002C28.2141 30.0002 28.2808 29.9892 28.3461 29.9651C28.6424 29.8558 28.7939 29.527 28.6846 29.2307ZM22.3158 25.1431L24.1366 20.2102L25.9575 25.1431H22.3158Z" fill="#525252"/>
</g>
<defs>
<clipPath id="clip0">
<rect width="32" height="32" fill="white"/>
</clipPath>
</defs>
</svg>
