<svg width="130" height="32" viewBox="0 0 130 32" fill="none" xmlns="http://www.w3.org/2000/svg">
<path d="M42.7734 12.4297C41.862 12.4297 41.1562 12.7734 40.6562 13.4609C40.1562 14.1432 39.9062 15.0964 39.9062 16.3203C39.9062 18.8672 40.862 20.1406 42.7734 20.1406C43.5755 20.1406 44.5469 19.9401 45.6875 19.5391V21.5703C44.75 21.9609 43.7031 22.1562 42.5469 22.1562C40.8854 22.1562 39.6146 21.6536 38.7344 20.6484C37.8542 19.638 37.4141 18.1901 37.4141 16.3047C37.4141 15.1172 37.6302 14.0781 38.0625 13.1875C38.4948 12.2917 39.1146 11.6068 39.9219 11.1328C40.7344 10.6536 41.6849 10.4141 42.7734 10.4141C43.8828 10.4141 44.9974 10.6823 46.1172 11.2188L45.3359 13.1875C44.9089 12.9844 44.4792 12.8073 44.0469 12.6562C43.6146 12.5052 43.1901 12.4297 42.7734 12.4297ZM50.3203 22H47.9375V9.84375H50.3203V22ZM56.4453 14.7969C55.9401 14.7969 55.5443 14.9583 55.2578 15.2812C54.9714 15.599 54.8073 16.0521 54.7656 16.6406H58.1094C58.099 16.0521 57.9453 15.599 57.6484 15.2812C57.3516 14.9583 56.9505 14.7969 56.4453 14.7969ZM56.7812 22.1562C55.375 22.1562 54.276 21.7682 53.4844 20.9922C52.6927 20.2161 52.2969 19.1172 52.2969 17.6953C52.2969 16.2318 52.6615 15.1016 53.3906 14.3047C54.125 13.5026 55.138 13.1016 56.4297 13.1016C57.6641 13.1016 58.625 13.4531 59.3125 14.1562C60 14.8594 60.3438 15.8307 60.3438 17.0703V18.2266H54.7109C54.737 18.9036 54.9375 19.4323 55.3125 19.8125C55.6875 20.1927 56.2135 20.3828 56.8906 20.3828C57.4167 20.3828 57.9141 20.3281 58.3828 20.2188C58.8516 20.1094 59.3411 19.9349 59.8516 19.6953V21.5391C59.4349 21.7474 58.9896 21.901 58.5156 22C58.0417 22.1042 57.4635 22.1562 56.7812 22.1562ZM67.8281 22L67.3672 20.8125H67.3047C66.9036 21.3177 66.4896 21.6693 66.0625 21.8672C65.6406 22.0599 65.0885 22.1562 64.4062 22.1562C63.5677 22.1562 62.9062 21.9167 62.4219 21.4375C61.9427 20.9583 61.7031 20.276 61.7031 19.3906C61.7031 18.4635 62.026 17.7812 62.6719 17.3438C63.3229 16.901 64.3021 16.6562 65.6094 16.6094L67.125 16.5625V16.1797C67.125 15.2943 66.6719 14.8516 65.7656 14.8516C65.0677 14.8516 64.2474 15.0625 63.3047 15.4844L62.5156 13.875C63.5208 13.349 64.6354 13.0859 65.8594 13.0859C67.0312 13.0859 67.9297 13.3411 68.5547 13.8516C69.1797 14.362 69.4922 15.138 69.4922 16.1797V22H67.8281ZM67.125 17.9531L66.2031 17.9844C65.5104 18.0052 64.9948 18.1302 64.6562 18.3594C64.3177 18.5885 64.1484 18.9375 64.1484 19.4062C64.1484 20.0781 64.5339 20.4141 65.3047 20.4141C65.8568 20.4141 66.2969 20.2552 66.625 19.9375C66.9583 19.6198 67.125 19.1979 67.125 18.6719V17.9531ZM80.0156 22H77.6328V16.8984C77.6328 16.2682 77.5208 15.7969 77.2969 15.4844C77.0729 15.1667 76.7161 15.0078 76.2266 15.0078C75.5599 15.0078 75.0781 15.2318 74.7812 15.6797C74.4844 16.1224 74.3359 16.8594 74.3359 17.8906V22H71.9531V13.2656H73.7734L74.0938 14.3828H74.2266C74.4922 13.9609 74.8568 13.6432 75.3203 13.4297C75.7891 13.2109 76.3203 13.1016 76.9141 13.1016C77.9297 13.1016 78.7005 13.3776 79.2266 13.9297C79.7526 14.4766 80.0156 15.2682 80.0156 16.3047V22ZM93.3906 22H86.8125V10.5781H93.3906V12.5625H89.2344V15.0703H93.1016V17.0547H89.2344V20H93.3906V22ZM103.414 22H101.031V16.8984C101.031 16.2682 100.924 15.7969 100.711 15.4844C100.503 15.1667 100.172 15.0078 99.7188 15.0078C99.1094 15.0078 98.6667 15.2318 98.3906 15.6797C98.1146 16.1276 97.9766 16.8646 97.9766 17.8906V22H95.5938V13.2656H97.4141L97.7344 14.3828H97.8672C98.1016 13.9818 98.4401 13.6693 98.8828 13.4453C99.3255 13.2161 99.8333 13.1016 100.406 13.1016C101.714 13.1016 102.599 13.5286 103.062 14.3828H103.273C103.508 13.9766 103.852 13.6615 104.305 13.4375C104.763 13.2135 105.279 13.1016 105.852 13.1016C106.841 13.1016 107.589 13.3568 108.094 13.8672C108.604 14.3724 108.859 15.1849 108.859 16.3047V22H106.469V16.8984C106.469 16.2682 106.362 15.7969 106.148 15.4844C105.94 15.1667 105.609 15.0078 105.156 15.0078C104.573 15.0078 104.135 15.2161 103.844 15.6328C103.557 16.0495 103.414 16.7109 103.414 17.6172V22ZM116.859 22L116.398 20.8125H116.336C115.935 21.3177 115.521 21.6693 115.094 21.8672C114.672 22.0599 114.12 22.1562 113.438 22.1562C112.599 22.1562 111.938 21.9167 111.453 21.4375C110.974 20.9583 110.734 20.276 110.734 19.3906C110.734 18.4635 111.057 17.7812 111.703 17.3438C112.354 16.901 113.333 16.6562 114.641 16.6094L116.156 16.5625V16.1797C116.156 15.2943 115.703 14.8516 114.797 14.8516C114.099 14.8516 113.279 15.0625 112.336 15.4844L111.547 13.875C112.552 13.349 113.667 13.0859 114.891 13.0859C116.062 13.0859 116.961 13.3411 117.586 13.8516C118.211 14.362 118.523 15.138 118.523 16.1797V22H116.859ZM116.156 17.9531L115.234 17.9844C114.542 18.0052 114.026 18.1302 113.688 18.3594C113.349 18.5885 113.18 18.9375 113.18 19.4062C113.18 20.0781 113.565 20.4141 114.336 20.4141C114.888 20.4141 115.328 20.2552 115.656 19.9375C115.99 19.6198 116.156 19.1979 116.156 18.6719V17.9531ZM120.883 11.0078C120.883 10.2318 121.315 9.84375 122.18 9.84375C123.044 9.84375 123.477 10.2318 123.477 11.0078C123.477 11.3776 123.367 11.6667 123.148 11.875C122.935 12.0781 122.612 12.1797 122.18 12.1797C121.315 12.1797 120.883 11.7891 120.883 11.0078ZM123.367 22H120.984V13.2656H123.367V22ZM128.258 22H125.875V9.84375H128.258V22Z" fill="white"/>
<g clip-path="url(#clip0)">
<g filter="url(#filter0_d)">
<path d="M16.1268 5C9.99141 5 5 9.99141 5 16.1268C5 20.5444 7.61956 24.5468 11.6745 26.3241C13.0853 26.9409 14.5833 27.2536 16.1268 27.2536C17.0542 27.2536 17.9762 27.139 18.8676 26.9132C19.497 26.7538 19.8778 26.1144 19.7182 25.4852C19.5588 24.8558 18.9192 24.475 18.2902 24.6346C17.5874 24.8125 16.8596 24.9028 16.1268 24.9028C14.9095 24.9028 13.7283 24.6563 12.6171 24.1706C9.41789 22.7685 7.3508 19.6111 7.3508 16.1268C7.3508 11.2877 11.2877 7.3508 16.1268 7.3508C20.9659 7.3508 24.9028 11.2877 24.9028 16.1268C24.9028 17.1577 24.7251 18.1673 24.3743 19.1274C24.0385 20.0466 23.2408 20.2542 22.6065 20.142C21.9666 20.0287 21.2827 19.5559 21.2827 18.5688V12.3453C21.2827 11.6962 20.7566 11.1699 20.1075 11.1699C19.6275 11.1699 19.2151 11.4576 19.0325 11.8699C18.2046 11.303 17.2037 10.9709 16.1268 10.9709C13.2838 10.9709 10.9709 13.2838 10.9709 16.1268C10.9709 18.9698 13.2838 21.2827 16.1268 21.2827C17.3085 21.2827 18.3983 20.8829 19.2688 20.2118C19.4325 20.5815 19.654 20.9226 19.9316 21.2267C20.5138 21.8644 21.3182 22.3013 22.1969 22.4566C23.0733 22.6116 23.9757 22.4782 24.738 22.0809C25.5945 21.6342 26.2322 20.8919 26.5823 19.934C27.0278 18.7148 27.2536 17.4338 27.2536 16.1268C27.2536 9.99141 22.2622 5 16.1268 5ZM16.1268 18.9319C14.5801 18.9319 13.3217 17.6737 13.3217 16.1268C13.3217 14.5799 14.5801 13.3217 16.1268 13.3217C17.6737 13.3217 18.9319 14.5799 18.9319 16.1268C18.9319 17.6737 17.6737 18.9319 16.1268 18.9319Z" fill="white"/>
</g>
<g filter="url(#filter1_d)">
<path d="M4.50016 9C4.24516 6.25499 2.745 4.75506 0 4.50008C2.745 4.24493 4.245 2.74501 4.49985 0C4.75485 2.74501 6.255 4.24493 9 4.49992C6.25516 4.75491 4.75516 6.25499 4.50016 9Z" fill="url(#paint0_linear)"/>
</g>
<g filter="url(#filter2_d)">
<path d="M29.0001 10C28.8301 8.16999 27.83 7.17004 26 7.00005C27.83 6.82996 28.83 5.83001 28.9999 4C29.1699 5.83001 30.17 6.82996 32 6.99995C30.1701 7.16994 29.1701 8.16999 29.0001 10Z" fill="url(#paint1_linear)"/>
</g>
</g>
<defs>
<filter id="filter0_d" x="5" y="5" width="22.2536" height="22.5536" filterUnits="userSpaceOnUse" color-interpolation-filters="sRGB">
<feFlood flood-opacity="0" result="BackgroundImageFix"/>
<feColorMatrix in="SourceAlpha" type="matrix" values="0 0 0 0 0 0 0 0 0 0 0 0 0 0 0 0 0 0 127 0"/>
<feOffset dy="0.3"/>
<feColorMatrix type="matrix" values="0 0 0 0 0 0 0 0 0 0 0 0 0 0 0 0 0 0 0.05 0"/>
<feBlend mode="normal" in2="BackgroundImageFix" result="effect1_dropShadow"/>
<feBlend mode="normal" in="SourceGraphic" in2="effect1_dropShadow" result="shape"/>
</filter>
<filter id="filter1_d" x="-0.122142" y="0" width="9.24428" height="9.24428" filterUnits="userSpaceOnUse" color-interpolation-filters="sRGB">
<feFlood flood-opacity="0" result="BackgroundImageFix"/>
<feColorMatrix in="SourceAlpha" type="matrix" values="0 0 0 0 0 0 0 0 0 0 0 0 0 0 0 0 0 0 127 0"/>
<feOffset dy="0.122142"/>
<feGaussianBlur stdDeviation="0.0610709"/>
<feColorMatrix type="matrix" values="0 0 0 0 0 0 0 0 0 0 0 0 0 0 0 0 0 0 0.12 0"/>
<feBlend mode="normal" in2="BackgroundImageFix" result="effect1_dropShadow"/>
<feBlend mode="normal" in="SourceGraphic" in2="effect1_dropShadow" result="shape"/>
</filter>
<filter id="filter2_d" x="25.8908" y="4" width="6.21848" height="6.21848" filterUnits="userSpaceOnUse" color-interpolation-filters="sRGB">
<feFlood flood-opacity="0" result="BackgroundImageFix"/>
<feColorMatrix in="SourceAlpha" type="matrix" values="0 0 0 0 0 0 0 0 0 0 0 0 0 0 0 0 0 0 127 0"/>
<feOffset dy="0.109242"/>
<feGaussianBlur stdDeviation="0.0546208"/>
<feColorMatrix type="matrix" values="0 0 0 0 0 0 0 0 0 0 0 0 0 0 0 0 0 0 0.12 0"/>
<feBlend mode="normal" in2="BackgroundImageFix" result="effect1_dropShadow"/>
<feBlend mode="normal" in="SourceGraphic" in2="effect1_dropShadow" result="shape"/>
</filter>
<linearGradient id="paint0_linear" x1="4.5" y1="-0.642857" x2="4.5" y2="10.2857" gradientUnits="userSpaceOnUse">
<stop stop-color="#FFED91"/>
<stop offset="0.430147" stop-color="#FFCC40"/>
<stop offset="0.979167" stop-color="#E7A645"/>
</linearGradient>
<linearGradient id="paint1_linear" x1="29" y1="4" x2="29" y2="10" gradientUnits="userSpaceOnUse">
<stop stop-color="#FFE291"/>
<stop offset="0.921875" stop-color="#FFBB00"/>
</linearGradient>
<clipPath id="clip0">
<path d="M0 0H32V32H0V0Z" fill="white"/>
</clipPath>
</defs>
</svg>
